<?xml version="1.0" encoding="iso-8859-1"?>
<!-- Generator: Adobe Illustrator 19.0.0, SVG Export Plug-In . SVG Version: 6.00 Build 0)  -->
<svg version="1.1" id="Layer_1" xmlns="http://www.w3.org/2000/svg" xmlns:xlink="http://www.w3.org/1999/xlink" x="0px" y="0px"
	 viewBox="0 0 503.467 503.467" style="enable-background:new 0 0 503.467 503.467;" xml:space="preserve">
<g transform="translate(1 1)">
	<path style="fill:#80D6FA;" d="M498.2,88.6v409.6c0,0-5.973-31.573-68.267-40.107c-10.24-1.707-21.333-2.56-34.133-2.56
		c0,0,0,42.667-51.2,42.667s-51.2-42.667-51.2-42.667c-12.8,0-23.893,0.853-34.133,2.56C196.973,466.627,191,498.2,191,498.2H88.6
		H45.933c-23.893,0-42.667-18.773-42.667-42.667s18.773-42.667,42.667-42.667S88.6,431.64,88.6,455.533V54.467h375.467
		C482.84,54.467,498.2,69.827,498.2,88.6L498.2,88.6z M225.987,242.2v34.133H242.2v25.6c0,9.387,7.68,17.067,17.067,17.067
		c0,0,0,42.667,17.067,68.267c10.24,16.213,25.6,42.667,68.267,42.667s58.027-26.453,68.267-42.667
		c17.067-25.6,17.067-68.267,17.067-68.267c9.387,0,17.067-7.68,17.067-17.067v-25.6h16.213h0.853V242.2h-5.973
		c-11.093-34.133-33.28-64.853-96.427-74.24v-11.093h-34.133v11.093c-51.2,5.973-85.333,40.107-96.427,74.24H225.987z"/>
	<path style="fill:#AAB1BA;" d="M429.933,458.093V498.2H344.6c51.2,0,51.2-42.667,51.2-42.667
		C408.6,455.533,419.693,456.387,429.933,458.093z M344.6,498.2h-85.333v-40.107c10.24-1.707,21.333-2.56,34.133-2.56
		C293.4,455.533,293.4,498.2,344.6,498.2z"/>
	<path style="fill:#FF7474;" d="M498.2,498.2h-68.267v-40.107C492.227,466.627,498.2,498.2,498.2,498.2z M259.267,458.093V498.2H191
		C191,498.2,196.973,466.627,259.267,458.093z"/>
	<path style="fill:#FFD0A1;" d="M447,276.333v25.6c0,9.387-7.68,17.067-17.067,17.067c0,0,0,42.667-17.067,68.267
		c-10.24,16.213-25.6,42.667-68.267,42.667s-58.027-26.453-68.267-42.667C259.267,361.667,259.267,319,259.267,319
		c-9.387,0-17.067-7.68-17.067-17.067v-25.6H447z"/>
	<path style="fill:#ECF4F7;" d="M88.6,54.467v401.067c0-23.893-18.773-42.667-42.667-42.667S3.267,431.64,3.267,455.533v-409.6
		c0-23.893,18.773-42.667,42.667-42.667S88.6,22.04,88.6,45.933V54.467z"/>
	<path style="fill:#FF7474;" d="M231.107,242.2c11.093-34.133,45.227-68.267,96.427-74.24v-11.093h34.133v11.093
		c63.147,10.24,85.333,40.107,96.427,74.24h5.973v34.133h-0.853H447H242.2h-16.213V242.2H231.107z"/>
</g>
<path style="fill:#51565F;" d="M499.2,503.467c-1.707,0-3.413-1.707-4.267-3.413c0-0.853-6.827-27.307-59.733-35.84V499.2
	c0,2.56-1.707,4.267-4.267,4.267s-4.267-1.707-4.267-4.267v-36.693c-7.68-0.853-16.213-1.707-25.6-1.707
	c-1.707,11.947-10.24,42.667-55.467,42.667s-53.76-30.72-55.467-42.667c-9.387,0-17.92,0.853-25.6,1.707V499.2
	c0,2.56-1.707,4.267-4.267,4.267S256,501.76,256,499.2v-35.84c-52.907,9.387-59.733,35.84-59.733,36.693
	c-0.853,2.56-2.56,3.413-5.12,3.413c-2.56-0.853-3.413-2.56-3.413-5.12c0-1.707,10.24-46.08,106.667-46.08
	c2.56,0,4.267,1.707,4.267,4.267c0,1.707,0.853,38.4,46.933,38.4s46.933-36.693,46.933-38.4c0-2.56,1.707-4.267,4.267-4.267
	c12.8,0,24.747,0.853,34.987,2.56l0,0c64,9.387,71.68,41.813,71.68,43.52C503.467,500.907,502.613,502.613,499.2,503.467
	C500.053,503.467,499.2,503.467,499.2,503.467z M157.867,503.467H46.933C21.333,503.467,0,482.133,0,456.533v-409.6
	C0,21.333,21.333,0,46.933,0s46.933,21.333,46.933,46.933v409.6c0,2.56-1.707,4.267-4.267,4.267c-2.56,0-4.267-1.707-4.267-4.267
	c0-21.333-17.067-38.4-38.4-38.4s-38.4,17.067-38.4,38.4s17.067,38.4,38.4,38.4h110.933c2.56,0,4.267,1.707,4.267,4.267
	C162.133,501.76,160.427,503.467,157.867,503.467z M46.933,8.533c-21.333,0-38.4,17.067-38.4,38.4v382.293
	c8.533-11.947,22.187-19.627,38.4-19.627s29.867,7.68,38.4,19.627V46.933C85.333,25.6,68.267,8.533,46.933,8.533z M140.8,469.333
	L140.8,469.333L140.8,469.333L140.8,469.333L140.8,469.333L140.8,469.333c-0.853,0-0.853,0-1.707,0
	c-0.853,0-0.853-0.853-1.707-0.853l0,0l0,0l0,0l0,0l0,0l-17.067-17.067c-1.707-1.707-1.707-4.267,0-5.973
	c1.707-1.707,4.267-1.707,5.973,0l9.387,9.387v-348.16c0-2.56,1.707-4.267,4.267-4.267h314.027l-9.387-9.387
	c-1.707-1.707-1.707-4.267,0-5.973s4.267-1.707,5.973,0l17.067,17.067l0,0l0,0l0,0l0,0l0,0c0,0,0.853,0.853,0.853,1.707
	s0,0.853,0,1.707l0,0l0,0l0,0l0,0l0,0l0,0l0,0l0,0l0,0l0,0c0,0.853,0,0.853,0,1.707s-0.853,0.853-0.853,1.707l0,0l0,0l0,0l0,0l0,0
	L450.56,128c-1.707,1.707-4.267,1.707-5.973,0c-1.707-1.707-1.707-4.267,0-5.973l9.387-9.387h-309.76v343.893l9.387-9.387
	c1.707-1.707,4.267-1.707,5.973,0c1.707,1.707,1.707,4.267,0,5.973l-17.067,17.067l0,0l0,0l0,0l0,0l0,0c0,0-0.853,0.853-1.707,0.853
	C141.653,469.333,141.653,469.333,140.8,469.333L140.8,469.333L140.8,469.333L140.8,469.333L140.8,469.333L140.8,469.333z
	 M499.2,452.267c-2.56,0-4.267-1.707-4.267-4.267V89.6c0-16.213-13.653-29.867-29.867-29.867H123.733
	c-2.56,0-4.267-1.707-4.267-4.267c0-2.56,1.707-4.267,4.267-4.267h341.333c21.333,0,38.4,17.067,38.4,38.4V448
	C503.467,450.56,501.76,452.267,499.2,452.267z M345.6,435.2c-42.667,0-58.88-24.747-69.973-41.813l-1.707-2.56
	c-14.507-22.187-17.067-55.467-17.92-66.56c-9.387-1.707-17.067-10.24-17.067-21.333V281.6h-11.947c-2.56,0-4.267-1.707-4.267-4.267
	v-32.427c0-0.853-0.853-0.853-0.853-1.707c0-2.56,1.707-4.267,4.267-4.267h3.413c11.093-29.867,41.813-65.707,94.72-74.24v-6.827
	c0-2.56,1.707-4.267,4.267-4.267h34.133c2.56,0,4.267,1.707,4.267,4.267v6.827c64.853,11.093,85.333,45.227,95.573,74.24h2.56
	c2.56,0,4.267,1.707,4.267,4.267v34.133c0,2.56-1.707,4.267-4.267,4.267h-12.8v21.333c0,10.24-7.68,18.773-17.067,21.333
	c-0.853,11.093-2.56,44.373-17.92,66.56l-1.707,2.56C404.48,410.453,388.267,435.2,345.6,435.2z M247.467,281.6v21.333
	c0,6.827,5.973,12.8,12.8,12.8c2.56,0,4.267,1.707,4.267,4.267c0,0,0,41.813,16.213,65.707l1.707,2.56
	c10.24,16.213,24.747,37.547,63.147,37.547s52.053-22.187,63.147-37.547l1.707-2.56C426.666,361.814,426.666,320,426.666,320
	c0-2.56,1.707-4.267,4.267-4.267c6.827,0,12.8-5.973,12.8-12.8V281.6H247.467z M448,273.067h12.8v-25.6h-38.4
	c-2.56,0-4.267-1.707-4.267-4.267s1.707-4.267,4.267-4.267h30.72c-10.24-27.307-29.013-54.613-86.187-65.707v27.307
	c0,2.56-1.707,4.267-4.267,4.267s-4.267-1.707-4.267-4.267v-38.4h-25.6v38.4c0,2.56-1.707,4.267-4.267,4.267
	s-4.267-1.707-4.267-4.267v-27.307c-46.933,7.68-75.093,38.4-86.187,65.707h30.72c2.56,0,4.267,1.707,4.267,4.267
	s-1.707,4.267-4.267,4.267h-37.547v25.6H448z M354.133,401.067h-17.067c-2.56,0-4.267-1.707-4.267-4.267s1.707-4.267,4.267-4.267
	h17.067c2.56,0,4.267,1.707,4.267,4.267S356.693,401.067,354.133,401.067z M371.2,375.467c-0.853,0-9.387,0-25.6-7.68
	c-16.213,7.68-24.747,7.68-25.6,7.68c-2.56,0-4.267-1.707-4.267-4.267c0-2.56,1.707-4.267,4.267-4.267c0,0,7.68,0,23.893-7.68
	c0.853-0.853,2.56-0.853,3.413,0c15.36,7.68,23.893,7.68,23.893,7.68c2.56,0,4.267,1.707,4.267,4.267
	C375.467,373.76,373.76,375.467,371.2,375.467z M379.733,324.267c-2.56,0-4.267-1.707-4.267-4.267v-4.267H371.2
	c-2.56,0-4.267-1.707-4.267-4.267c0-2.56,1.707-4.267,4.267-4.267h17.067c2.56,0,4.267,1.707,4.267,4.267
	c0,2.56-1.707,4.267-4.267,4.267H384V320C384,322.56,382.293,324.267,379.733,324.267z M311.467,324.267
	c-2.56,0-4.267-1.707-4.267-4.267v-4.267h-4.267c-2.56,0-4.267-1.707-4.267-4.267c0-2.56,1.707-4.267,4.267-4.267H320
	c2.56,0,4.267,1.707,4.267,4.267c0,2.56-1.707,4.267-4.267,4.267h-4.267V320C315.733,322.56,314.027,324.267,311.467,324.267z"/>
<g>
</g>
<g>
</g>
<g>
</g>
<g>
</g>
<g>
</g>
<g>
</g>
<g>
</g>
<g>
</g>
<g>
</g>
<g>
</g>
<g>
</g>
<g>
</g>
<g>
</g>
<g>
</g>
<g>
</g>
</svg>
